<?xml version="1.0" encoding="UTF-8"?>
<svg width="120" height="40" viewBox="0 0 120 40" fill="none" xmlns="http://www.w3.org/2000/svg">
  <path d="M20 13c-3.9 0-7 3.1-7 7s3.1 7 7 7c1.9 0 3.6-.7 4.9-1.9l-2.1-2.1c-.6.6-1.4 1-2.3 1-1.8 0-3.3-1.5-3.3-3.3s1.5-3.3 3.3-3.3c.9 0 1.7.4 2.3 1l2.1-2.1C23.6 13.7 21.9 13 20 13z" fill="#FF9900"/>
  <path d="M20 13c-3.9 0-7 3.1-7 7s3.1 7 7 7c1.9 0 3.6-.7 4.9-1.9l-2.1-2.1c-.6.6-1.4 1-2.3 1-1.8 0-3.3-1.5-3.3-3.3s1.5-3.3 3.3-3.3c.9 0 1.7.4 2.3 1l2.1-2.1C23.6 13.7 21.9 13 20 13z" fill="#232F3E"/>
  <text x="35" y="25" font-family="Arial" font-size="14" fill="#1E293B" font-weight="500">Amazon</text>
</svg> 