<?xml version="1.0" encoding="UTF-8"?>
<svg width="120" height="40" viewBox="0 0 120 40" fill="none" xmlns="http://www.w3.org/2000/svg">
  <path d="M20 13c-3.9 0-7 3.1-7 7s3.1 7 7 7c1.9 0 3.6-.7 4.9-1.9l-2.1-2.1c-.6.6-1.4 1-2.3 1-1.8 0-3.3-1.5-3.3-3.3s1.5-3.3 3.3-3.3c.9 0 1.7.4 2.3 1l2.1-2.1C23.6 13.7 21.9 13 20 13z" fill="#4285F4"/>
  <path d="M27 20c0-1.1-.2-2.1-.5-3.1l-7.5 7.5c.4 1.1 1.1 2 2.1 2.6l5.9-5.9c.1-.3.2-.6.2-1.1z" fill="#34A853"/>
  <path d="M20 27c-3.9 0-7-3.1-7-7s3.1-7 7-7c1.9 0 3.6.7 4.9 1.9l2.1-2.1C25.6 12.3 23.9 11 20 11c-5 0-9 4-9 9s4 9 9 9c2.3 0 4.4-.9 6-2.4l-2.1-2.1C22.6 26.3 21.4 27 20 27z" fill="#FBBC05"/>
  <path d="M20 11c-5 0-9 4-9 9s4 9 9 9c2.3 0 4.4-.9 6-2.4l-2.1-2.1C22.6 26.3 21.4 27 20 27c-3.9 0-7-3.1-7-7s3.1-7 7-7c1.9 0 3.6.7 4.9 1.9l2.1-2.1C23.6 12.3 21.9 11 20 11z" fill="#EA4335"/>
  <text x="35" y="25" font-family="Arial" font-size="14" fill="#1E293B" font-weight="500">Google</text>
</svg> 