<?xml version="1.0" encoding="UTF-8"?>
<svg width="400" height="300" viewBox="0 0 400 300" fill="none" xmlns="http://www.w3.org/2000/svg">
  <!-- Background -->
  <rect width="400" height="300" rx="12" fill="#1E293B"/>
  
  <!-- Next.js Logo -->
  <rect x="40" y="40" width="60" height="60" rx="8" fill="black"/>
  <path d="M70 40L100 70L70 100L40 70L70 40Z" fill="white"/>
  <path d="M70 50L90 70L70 90L50 70L70 50Z" fill="black"/>
  
  <!-- Server Components -->
  <rect x="120" y="40" width="240" height="40" rx="4" fill="#334155"/>
  <rect x="120" y="100" width="240" height="40" rx="4" fill="#334155"/>
  <rect x="120" y="160" width="240" height="40" rx="4" fill="#334155"/>
  
  <!-- Connection Lines -->
  <path d="M100 70L120 70" stroke="#3B82F6" stroke-width="2" stroke-dasharray="4 4"/>
  <path d="M100 130L120 130" stroke="#10B981" stroke-width="2" stroke-dasharray="4 4"/>
  <path d="M100 190L120 190" stroke="#F59E0B" stroke-width="2" stroke-dasharray="4 4"/>
  
  <!-- Decorative Elements -->
  <circle cx="360" cy="60" r="8" fill="#3B82F6"/>
  <circle cx="360" cy="120" r="8" fill="#10B981"/>
  <circle cx="360" cy="180" r="8" fill="#F59E0B"/>
</svg> 