<?xml version="1.0" encoding="UTF-8"?>
<svg width="400" height="300" viewBox="0 0 400 300" fill="none" xmlns="http://www.w3.org/2000/svg">
  <!-- Dashboard Background -->
  <rect width="400" height="300" rx="12" fill="#1E293B"/>
  
  <!-- Header -->
  <rect width="400" height="60" fill="#334155"/>
  <circle cx="30" cy="30" r="8" fill="#EF4444"/>
  <circle cx="50" cy="30" r="8" fill="#F59E0B"/>
  <circle cx="70" cy="30" r="8" fill="#10B981"/>
  
  <!-- Sidebar -->
  <rect x="0" y="60" width="80" height="240" fill="#475569"/>
  <rect x="20" y="100" width="40" height="4" rx="2" fill="#94A3B8"/>
  <rect x="20" y="120" width="40" height="4" rx="2" fill="#94A3B8"/>
  <rect x="20" y="140" width="40" height="4" rx="2" fill="#94A3B8"/>
  
  <!-- Main Content -->
  <rect x="100" y="80" width="280" height="40" rx="4" fill="#475569"/>
  <rect x="100" y="140" width="130" height="140" rx="4" fill="#475569"/>
  <rect x="250" y="140" width="130" height="140" rx="4" fill="#475569"/>
  
  <!-- Chart Elements -->
  <path d="M120 240L140 220L160 230L180 210L200 225" stroke="#3B82F6" stroke-width="2"/>
  <path d="M270 240L290 230L310 220L330 210L350 200" stroke="#10B981" stroke-width="2"/>
</svg> 