<?xml version="1.0" encoding="UTF-8"?>
<svg width="400" height="300" viewBox="0 0 400 300" fill="none" xmlns="http://www.w3.org/2000/svg">
  <!-- Background -->
  <rect width="400" height="300" rx="12" fill="#1E293B"/>
  
  <!-- Code Window -->
  <rect x="20" y="20" width="360" height="260" rx="8" fill="#334155"/>
  
  <!-- TypeScript Logo -->
  <rect x="40" y="40" width="40" height="40" rx="4" fill="#3178C6"/>
  <path d="M60 50C60 48 58 46 56 46H52V54H56C58 54 60 52 60 50Z" fill="white"/>
  <path d="M52 36C47.6 36 44 39.6 44 44C44 48.4 47.6 52 52 52C56.4 52 60 48.4 60 44C60 39.6 56.4 36 52 36ZM56 48H52V44H56C58 44 60 46 60 48C60 50 58 52 56 52H52V36H56C61.2 36 64 38.8 64 44C64 49.2 61.2 52 56 52Z" fill="white"/>
  
  <!-- Code Lines -->
  <rect x="100" y="40" width="200" height="4" rx="2" fill="#94A3B8"/>
  <rect x="100" y="60" width="250" height="4" rx="2" fill="#94A3B8"/>
  <rect x="100" y="80" width="180" height="4" rx="2" fill="#94A3B8"/>
  <rect x="100" y="100" width="220" height="4" rx="2" fill="#94A3B8"/>
  <rect x="100" y="120" width="150" height="4" rx="2" fill="#94A3B8"/>
  
  <!-- Type Annotations -->
  <rect x="100" y="160" width="80" height="4" rx="2" fill="#3B82F6"/>
  <rect x="190" y="160" width="40" height="4" rx="2" fill="#10B981"/>
  <rect x="100" y="180" width="100" height="4" rx="2" fill="#3B82F6"/>
  <rect x="210" y="180" width="60" height="4" rx="2" fill="#10B981"/>
</svg> 