<?xml version="1.0" encoding="UTF-8"?>
<svg width="800" height="600" viewBox="0 0 800 600" fill="none" xmlns="http://www.w3.org/2000/svg">
  <!-- Background Elements -->
  <rect width="800" height="600" fill="#F8FAFC"/>
  
  <!-- Code Window -->
  <rect x="100" y="100" width="600" height="400" rx="12" fill="#1E293B"/>
  <rect x="100" y="100" width="600" height="40" rx="12" fill="#334155"/>
  <circle cx="130" cy="120" r="6" fill="#EF4444"/>
  <circle cx="150" cy="120" r="6" fill="#F59E0B"/>
  <circle cx="170" cy="120" r="6" fill="#10B981"/>
  
  <!-- Code Lines -->
  <rect x="130" y="160" width="200" height="8" rx="4" fill="#94A3B8"/>
  <rect x="130" y="180" width="300" height="8" rx="4" fill="#94A3B8"/>
  <rect x="130" y="200" width="250" height="8" rx="4" fill="#94A3B8"/>
  <rect x="130" y="240" width="200" height="8" rx="4" fill="#94A3B8"/>
  <rect x="130" y="260" width="350" height="8" rx="4" fill="#94A3B8"/>
  <rect x="130" y="280" width="280" height="8" rx="4" fill="#94A3B8"/>
  
  <!-- Decorative Elements -->
  <circle cx="700" cy="150" r="40" fill="#3B82F6" opacity="0.1"/>
  <circle cx="100" cy="450" r="30" fill="#10B981" opacity="0.1"/>
  <circle cx="650" cy="500" r="25" fill="#F59E0B" opacity="0.1"/>
  
  <!-- Connection Lines -->
  <path d="M400 300 L500 200" stroke="#3B82F6" stroke-width="2" stroke-dasharray="4 4"/>
  <path d="M300 300 L200 400" stroke="#10B981" stroke-width="2" stroke-dasharray="4 4"/>
  <path d="M400 300 L300 400" stroke="#F59E0B" stroke-width="2" stroke-dasharray="4 4"/>
</svg> 