<?xml version="1.0" encoding="UTF-8"?>
<svg width="800" height="600" viewBox="0 0 800 600" fill="none" xmlns="http://www.w3.org/2000/svg">
  <rect width="800" height="600" fill="#F3F4F6"/>
  <circle cx="400" cy="300" r="200" fill="#E5E7EB"/>
  <path d="M400 200C311.634 200 240 271.634 240 360C240 448.366 311.634 520 400 520C488.366 520 560 448.366 560 360C560 271.634 488.366 200 400 200ZM400 480C333.726 480 280 426.274 280 360C280 293.726 333.726 240 400 240C466.274 240 520 293.726 520 360C520 426.274 466.274 480 400 480Z" fill="#9CA3AF"/>
  <path d="M400 280C355.817 280 320 315.817 320 360C320 404.183 355.817 440 400 440C444.183 440 480 404.183 480 360C480 315.817 444.183 280 400 280Z" fill="#6B7280"/>
</svg> 